<?xml version="1.0" encoding="utf-8"?>
<!-- Generator: Adobe Illustrator 25.4.1, SVG Export Plug-In . SVG Version: 6.00 Build 0)  -->
<svg version="1.1" id="Layer_1" xmlns="http://www.w3.org/2000/svg" xmlns:xlink="http://www.w3.org/1999/xlink" x="0px" y="0px"
	 viewBox="0 0 250 100" style="enable-background:new 0 0 250 100;" xml:space="preserve">
<style type="text/css">
	.st0{fill:url(#SVGID_1_);}
	.st1{fill:url(#SVGID_00000019650993762288500920000006417518482287028365_);}
	.st2{fill:url(#SVGID_00000022555483281383731600000011933623923123739290_);}
	.st3{fill:url(#SVGID_00000154425860958254009470000009390354301585357724_);}
	.st4{fill:url(#SVGID_00000125575221098066253820000018045314589321431693_);}
	.st5{fill:url(#SVGID_00000031192409268460243500000002322678815930639778_);}
	.st6{fill:url(#SVGID_00000030487985860230837820000013292562537211513995_);}
	.st7{fill:url(#SVGID_00000118391145256330978940000009126753575565235606_);}
	.st8{fill:url(#SVGID_00000106117320941620773340000002927560779901786801_);}
	.st9{fill:url(#SVGID_00000054236679289695483700000018011187224920686508_);}
	.st10{fill:url(#SVGID_00000096057296841635601760000008133531625698522503_);}
	.st11{fill:url(#SVGID_00000101803207114427232650000009678342869247667379_);}
	.st12{fill:url(#SVGID_00000112620449894845829640000014697514306599051394_);}
	.st13{fill:url(#SVGID_00000041271806672358996340000000903058194598184594_);}
</style>
<g>
	<g>
		<g>
			<linearGradient id="SVGID_1_" gradientUnits="userSpaceOnUse" x1="144.4579" y1="-103.96" x2="144.4579" y2="-103.24">
				<stop  offset="0" style="stop-color:#006837"/>
				<stop  offset="1" style="stop-color:#009245"/>
			</linearGradient>
			<path class="st0" d="M146.69,27.54c1.9,2.84,2.79,5.96,2.23,9.4c-0.49,3.01-1.72,5.63-4.19,7.66c-0.02-0.22-0.04-0.37-0.06-0.52
				c-0.16-2.2,0.17-4.33,0.78-6.43c0.42-1.44,0.83-2.88,1.24-4.32c0.06-0.21,0.09-0.43,0.09-0.66c-0.02,0.04-0.04,0.08-0.05,0.12
				c-0.43,1.53-1.14,2.95-1.76,4.41c-0.64,1.49-1.17,3.01-1.26,4.64c-0.05,0.96,0.02,1.92,0.11,2.88c0.09,0.98,0.27,1.95,0.41,2.88
				c-0.07-0.09-0.16-0.23-0.27-0.37c-0.92-1.19-1.84-2.37-2.75-3.56c-0.46-0.6-0.88-1.23-1.14-1.96c-0.43-1.22-0.24-2.36,0.41-3.45
				c0.58-0.97,1.36-1.79,2.12-2.62c0.97-1.06,1.95-2.1,2.85-3.21c0.72-0.88,1.21-1.9,1.28-3.07
				C146.77,28.75,146.71,28.14,146.69,27.54z"/>
			
				<linearGradient id="SVGID_00000002360832637211277020000006749719673571436963_" gradientUnits="userSpaceOnUse" x1="138.0545" y1="-103.96" x2="138.0545" y2="-103.24">
				<stop  offset="0" style="stop-color:#006837"/>
				<stop  offset="1" style="stop-color:#009245"/>
			</linearGradient>
			<path style="fill:url(#SVGID_00000002360832637211277020000006749719673571436963_);" d="M132.1,40.91
				c0.61,0.2,1.23,0.38,1.84,0.59c2.12,0.73,4.14,1.68,5.92,3.06c1.55,1.2,2.83,2.62,3.5,4.5c0.56,1.56,0.75,3.16,0.64,4.81
				c-0.05,0.74-0.13,1.47-0.23,2.2c-1.09-3.97-2.53-7.74-5.32-10.86c1.02,1.3,1.82,2.73,2.46,4.24c0.64,1.52,1.26,3.06,1.83,4.61
				c0.57,1.54,1.03,3.12,1.11,4.79c-0.02,0-0.05,0-0.05-0.01c-0.37-1.32-1.11-2.45-1.83-3.58c-1.11-1.74-2.17-3.49-2.9-5.42
				c-0.39-1.03-0.76-2.06-1.14-3.09c-0.93-2.53-2.69-4.28-5.11-5.41c-0.25-0.12-0.5-0.24-0.75-0.36
				C132.08,40.95,132.09,40.93,132.1,40.91z"/>
			
				<linearGradient id="SVGID_00000144306652949018597520000011593558330598633607_" gradientUnits="userSpaceOnUse" x1="150.1173" y1="-103.96" x2="150.1173" y2="-103.24">
				<stop  offset="0" style="stop-color:#006837"/>
				<stop  offset="1" style="stop-color:#009245"/>
			</linearGradient>
			<path style="fill:url(#SVGID_00000144306652949018597520000011593558330598633607_);" d="M156,40.66
				c-0.52,0.25-0.99,0.47-1.45,0.71c-1.83,0.94-2.99,2.45-3.72,4.35c-0.42,1.11-0.86,2.21-1.38,3.27c-0.79,1.61-2.02,2.88-3.33,4.08
				c-0.55,0.5-1.12,0.97-1.69,1.45c-0.04,0.04-0.09,0.06-0.2,0.13c0.27-0.58,0.49-1.11,0.77-1.6c1.3-2.32,2.59-4.65,3.94-6.94
				c0.46-0.78,1.08-1.47,1.59-2.16c-0.08,0.08-0.21,0.19-0.34,0.31c-0.13,0.12-0.25,0.25-0.38,0.38c-1.35,1.43-2.38,3.09-3.37,4.78
				c-0.49,0.83-0.95,1.68-1.42,2.52c-0.04,0.07-0.08,0.14-0.13,0.21c-0.03,0-0.06-0.01-0.1-0.01c-0.03-0.52-0.1-1.04-0.08-1.56
				c0.07-2.08,0.89-3.85,2.31-5.34c1.3-1.37,2.9-2.31,4.6-3.09c1.34-0.62,2.74-1.08,4.17-1.46C155.85,40.69,155.9,40.68,156,40.66z"
				/>
		</g>
	</g>
	
		<linearGradient id="SVGID_00000142148449082073773880000005234446065760577455_" gradientUnits="userSpaceOnUse" x1="283.84" y1="66.1486" x2="284.34" y2="66.1486">
		<stop  offset="5.586592e-03" style="stop-color:#092719"/>
		<stop  offset="0.9832" style="stop-color:#0A4527"/>
	</linearGradient>
	<path style="fill:url(#SVGID_00000142148449082073773880000005234446065760577455_);" d="M69.73,74.44
		c-1.44-1.07-2.22-2.59-2.33-4.58h5.72c0.05,0.67,0.26,1.17,0.6,1.48c0.35,0.31,0.79,0.47,1.34,0.47c0.49,0,0.9-0.12,1.22-0.37
		c0.32-0.25,0.48-0.59,0.48-1.03c0-0.57-0.26-1-0.79-1.31c-0.53-0.31-1.39-0.66-2.57-1.04c-1.26-0.42-2.28-0.83-3.05-1.22
		c-0.78-0.39-1.45-0.97-2.03-1.72c-0.57-0.76-0.86-1.75-0.86-2.97c0-1.24,0.31-2.3,0.93-3.19c0.62-0.88,1.48-1.56,2.57-2.01
		c1.09-0.46,2.34-0.68,3.72-0.68c2.24,0,4.04,0.53,5.38,1.57c1.34,1.05,2.06,2.52,2.15,4.42h-5.83c-0.02-0.58-0.2-1.02-0.53-1.31
		c-0.34-0.29-0.77-0.44-1.3-0.44c-0.4,0-0.73,0.12-0.99,0.36s-0.38,0.57-0.38,1.01c0,0.37,0.14,0.68,0.42,0.94
		c0.28,0.26,0.63,0.49,1.05,0.68c0.42,0.19,1.04,0.43,1.86,0.73c1.22,0.42,2.23,0.83,3.02,1.25c0.79,0.41,1.48,0.98,2.05,1.72
		c0.57,0.74,0.86,1.67,0.86,2.8c0,1.15-0.29,2.18-0.86,3.09c-0.57,0.91-1.4,1.63-2.49,2.16c-1.09,0.53-2.37,0.79-3.84,0.79
		C73.01,76.04,71.17,75.51,69.73,74.44z"/>
	
		<linearGradient id="SVGID_00000013193532361766639540000015887129090745930152_" gradientUnits="userSpaceOnUse" x1="283.84" y1="65.7246" x2="284.34" y2="65.7246">
		<stop  offset="5.586592e-03" style="stop-color:#092719"/>
		<stop  offset="0.9832" style="stop-color:#0A4527"/>
	</linearGradient>
	<path style="fill:url(#SVGID_00000013193532361766639540000015887129090745930152_);" d="M99.21,62.13
		c1.03,1.18,1.55,2.77,1.55,4.77v3.58c0,2.96-2.4,5.36-5.36,5.36h0v-8.24c0-0.88-0.23-1.56-0.68-2.07c-0.46-0.5-1.07-0.75-1.83-0.75
		c-0.8,0-1.43,0.25-1.89,0.75c-0.46,0.5-0.68,1.19-0.68,2.07v2.87c0,2.96-2.4,5.36-5.36,5.36h0V60.96c0-2.96,2.4-5.36,5.36-5.36h0
		v7.09c0.47-0.69,1.12-1.25,1.93-1.68c0.81-0.43,1.75-0.64,2.8-0.64C96.79,60.36,98.18,60.95,99.21,62.13z"/>
	
		<linearGradient id="SVGID_00000170978682783033292630000003619124857696151705_" gradientUnits="userSpaceOnUse" x1="283.84" y1="68.1736" x2="284.34" y2="68.1736">
		<stop  offset="5.586592e-03" style="stop-color:#092719"/>
		<stop  offset="0.9832" style="stop-color:#0A4527"/>
	</linearGradient>
	<path style="fill:url(#SVGID_00000170978682783033292630000003619124857696151705_);" d="M103.7,64c0.57-1.19,1.36-2.1,2.35-2.74
		c0.99-0.64,2.1-0.96,3.32-0.96c1.06,0,1.97,0.21,2.74,0.63c0.77,0.42,1.36,0.99,1.78,1.7v0c0-1.18,0.96-2.13,2.13-2.13h3.23v9.99
		c0,2.96-2.4,5.36-5.36,5.36l0,0v-2.13c-0.42,0.71-1.02,1.28-1.79,1.7c-0.77,0.42-1.68,0.63-2.72,0.63c-1.22,0-2.33-0.32-3.32-0.96
		c-0.99-0.64-1.78-1.55-2.35-2.75c-0.58-1.19-0.86-2.59-0.86-4.17C102.83,66.57,103.12,65.19,103.7,64z M113.08,65.83
		c-0.54-0.57-1.2-0.85-1.98-0.85c-0.8,0-1.47,0.28-2,0.84c-0.53,0.56-0.79,1.34-0.79,2.34c0,0.99,0.26,1.77,0.79,2.34
		c0.53,0.57,1.19,0.86,2,0.86c0.78,0,1.45-0.28,1.98-0.85c0.54-0.57,0.81-1.35,0.81-2.35C113.89,67.18,113.62,66.4,113.08,65.83z"/>
	
		<linearGradient id="SVGID_00000010309696231176944640000014553132258778453121_" gradientUnits="userSpaceOnUse" x1="283.84" y1="65.7246" x2="284.34" y2="65.7246">
		<stop  offset="5.586592e-03" style="stop-color:#092719"/>
		<stop  offset="0.9832" style="stop-color:#0A4527"/>
	</linearGradient>
	<path style="fill:url(#SVGID_00000010309696231176944640000014553132258778453121_);" d="M128.27,70.43l-0.59-0.87v0.93
		c0,2.96-2.4,5.36-5.36,5.36l0,0V60.96c0-2.96,2.4-5.36,5.36-5.36h0v10.92l0.54-0.76c2.32-3.3,6.1-5.26,10.13-5.26l0,0l-6.05,7.72
		l6.16,7.63l0,0C134.37,75.85,130.55,73.82,128.27,70.43z"/>
	
		<linearGradient id="SVGID_00000160889707899027494450000012615666115714143654_" gradientUnits="userSpaceOnUse" x1="283.84" y1="68.1736" x2="284.34" y2="68.1736">
		<stop  offset="5.586592e-03" style="stop-color:#092719"/>
		<stop  offset="0.9832" style="stop-color:#0A4527"/>
	</linearGradient>
	<path style="fill:url(#SVGID_00000160889707899027494450000012615666115714143654_);" d="M145.38,60.5v9.99
		c0,2.96-2.4,5.36-5.36,5.36l0,0v-9.99C140.02,62.9,142.42,60.5,145.38,60.5L145.38,60.5z"/>
	
		<linearGradient id="SVGID_00000117646700754227275960000009354768439461825446_" gradientUnits="userSpaceOnUse" x1="283.84" y1="65.7246" x2="284.34" y2="65.7246">
		<stop  offset="5.586592e-03" style="stop-color:#092719"/>
		<stop  offset="0.9832" style="stop-color:#0A4527"/>
	</linearGradient>
	<path style="fill:url(#SVGID_00000117646700754227275960000009354768439461825446_);" d="M153.81,55.6v14.89
		c0,2.96-2.4,5.36-5.36,5.36l0,0V60.96C148.45,58,150.85,55.6,153.81,55.6L153.81,55.6z"/>
	
		<linearGradient id="SVGID_00000033330386342261932240000007883769605104853428_" gradientUnits="userSpaceOnUse" x1="162.1027" y1="65.7246" x2="178.2469" y2="65.7246">
		<stop  offset="5.586592e-03" style="stop-color:#092719"/>
		<stop  offset="0.9832" style="stop-color:#0A4527"/>
	</linearGradient>
	<path style="fill:url(#SVGID_00000033330386342261932240000007883769605104853428_);" d="M168.05,70.43l-0.59-0.87v0.93
		c0,2.96-2.4,5.36-5.36,5.36l0,0V60.96c0-2.96,2.4-5.36,5.36-5.36l0,0v10.92l0.54-0.76c2.32-3.3,6.1-5.26,10.13-5.26l0,0l-6.05,7.72
		l6.16,7.63l0,0C174.16,75.85,170.34,73.82,168.05,70.43z"/>
	
		<linearGradient id="SVGID_00000023961534658639182250000013711550905364855227_" gradientUnits="userSpaceOnUse" x1="179.8067" y1="65.7246" x2="195.6228" y2="65.7246">
		<stop  offset="5.586592e-03" style="stop-color:#092719"/>
		<stop  offset="0.9832" style="stop-color:#0A4527"/>
	</linearGradient>
	<path style="fill:url(#SVGID_00000023961534658639182250000013711550905364855227_);" d="M194.08,62.13
		c1.03,1.18,1.55,2.77,1.55,4.77v3.58c0,2.96-2.4,5.36-5.36,5.36l0,0v-8.24c0-0.88-0.23-1.56-0.68-2.07
		c-0.46-0.5-1.07-0.75-1.83-0.75c-0.8,0-1.43,0.25-1.89,0.75c-0.46,0.5-0.68,1.19-0.68,2.07v2.87c0,2.96-2.4,5.36-5.36,5.36h0V60.96
		c0-2.96,2.4-5.36,5.36-5.36l0,0v7.09c0.47-0.69,1.12-1.25,1.93-1.68c0.81-0.43,1.75-0.64,2.8-0.64
		C191.66,60.36,193.05,60.95,194.08,62.13z"/>
	
		<linearGradient id="SVGID_00000117674083380370845570000014730640628365478590_" gradientUnits="userSpaceOnUse" x1="197.7012" y1="68.1736" x2="214.1193" y2="68.1736">
		<stop  offset="5.586592e-03" style="stop-color:#092719"/>
		<stop  offset="0.9832" style="stop-color:#0A4527"/>
	</linearGradient>
	<path style="fill:url(#SVGID_00000117674083380370845570000014730640628365478590_);" d="M198.56,64c0.57-1.19,1.36-2.1,2.35-2.74
		c0.99-0.64,2.1-0.96,3.32-0.96c1.06,0,1.97,0.21,2.74,0.63c0.77,0.42,1.36,0.99,1.78,1.7v0c0-1.18,0.96-2.13,2.13-2.13h3.23v9.99
		c0,2.96-2.4,5.36-5.36,5.36l0,0v-2.13c-0.42,0.71-1.02,1.28-1.79,1.7c-0.77,0.42-1.68,0.63-2.72,0.63c-1.22,0-2.33-0.32-3.32-0.96
		c-0.99-0.64-1.78-1.55-2.35-2.75c-0.58-1.19-0.86-2.59-0.86-4.17C197.7,66.57,197.99,65.19,198.56,64z M207.95,65.83
		c-0.54-0.57-1.2-0.85-1.98-0.85c-0.8,0-1.47,0.28-2,0.84c-0.53,0.56-0.79,1.34-0.79,2.34c0,0.99,0.26,1.77,0.79,2.34
		c0.53,0.57,1.19,0.86,2,0.86c0.78,0,1.45-0.28,1.98-0.85c0.54-0.57,0.81-1.35,0.81-2.35C208.76,67.18,208.49,66.4,207.95,65.83z"/>
	
		<linearGradient id="SVGID_00000080914794847566654550000004366159784154008252_" gradientUnits="userSpaceOnUse" x1="217.184" y1="68.1051" x2="233" y2="68.1051">
		<stop  offset="5.586592e-03" style="stop-color:#092719"/>
		<stop  offset="0.9832" style="stop-color:#0A4527"/>
	</linearGradient>
	<path style="fill:url(#SVGID_00000080914794847566654550000004366159784154008252_);" d="M231.44,62.13
		c1.04,1.18,1.56,2.77,1.56,4.77v3.58c0,2.96-2.4,5.36-5.36,5.36h0v-8.24c0-0.88-0.23-1.56-0.68-2.07c-0.46-0.5-1.07-0.75-1.83-0.75
		c-0.8,0-1.43,0.25-1.89,0.75c-0.46,0.5-0.68,1.19-0.68,2.07v8.24l0,0c-2.96,0-5.36-2.4-5.36-5.36V60.5h5.36v2.19
		c0.47-0.69,1.11-1.25,1.91-1.68c0.8-0.43,1.72-0.64,2.76-0.64C229,60.36,230.4,60.95,231.44,62.13z"/>
	
		<linearGradient id="SVGID_00000132806621866969111640000010293538225803396510_" gradientUnits="userSpaceOnUse" x1="9.6977" y1="40.4794" x2="110.7022" y2="40.4794">
		<stop  offset="0.4358" style="stop-color:#109300"/>
		<stop  offset="1" style="stop-color:#7FD300"/>
	</linearGradient>
	<path style="fill:url(#SVGID_00000132806621866969111640000010293538225803396510_);" d="M67.16,76.74
		c-0.23,0.06-0.46,0.12-0.69,0.18c-0.56-3.95-1.13-7.89-1.68-11.83c-0.57-4.06-1.13-8.13-1.72-12.19c-0.21-1.46-1.49-2.41-2.97-2.28
		c-3.65,0.31-3.68,0.31-3.7,3.94c-0.03,3.99-0.01,7.98-0.01,11.97c-0.12,0-0.24,0.01-0.37,0.01c-0.41-5.19-0.81-10.39-1.23-15.79
		c-1.64,0.15-3.17,0.29-4.85,0.44c-0.17,2.79-0.34,5.47-0.5,8.15c-0.14,0-0.28,0-0.42,0.01c0-3.57,0-7.14,0-10.11
		c1.01,1.96,3.54,0.22,5.55,1.25c0-1.22,0-2.18,0-3.4c1.35,2.08,5.9,3.19,7.54,1.77c2.18-1.89,3.89-4.34,6.11-6.17
		c3.48-2.86,2.22-6.11,1.02-9.25c-1.37-3.58-1.65-3.59-5.4-3.03c-1.72,0.25-3.45,0.51-5.15,0.88c-0.6,0.13-1.13,0.61-1.69,0.93
		c0.56,0.62,1,1.5,1.69,1.81c1.16,0.52,2.5,0.63,3.72,1.03c0.54,0.18,0.97,0.66,1.86,1.3c-2.09,0.71-3.63,1.4-5.24,1.72
		c-1.96,0.4-3.02,1.47-3.39,3.37c-0.06,0.32-0.24,0.62-0.58,0.92c0-0.88,0-1.77,0-3.21c-2.18,1.04-4.01,1.92-5.63,2.69
		c-0.04,0.19,0.02-0.11,0.12-0.59c-0.74,0.22-1.4,0.4-2.06,0.61c-0.63,0.2-1.26,0.43-1.98,0.67c0.14,0.68,0.2,1.29,0.39,1.86
		c1.38,4.23,1.54,8.57,1.45,12.99c-0.14,6.46-0.04,12.93-0.04,19.65C40.62,75.3,35.13,72,30.45,67.32
		c-4.67-4.67-7.8-10.25-9.65-16.94c-2.5,1.68-6.53,0.51-7.45,4.91c-1.22-3.59-2.43-7.17-3.65-10.76c0.09-0.18,0.18-0.37,0.27-0.55
		c1.82,3.04,3.98,1.48,6,0.84c8.35-2.66,16.68-5.39,25.02-8.08c0.95-0.31,1.89-0.51,1.44-1.88c-0.07-0.21,0.08-0.56,0.24-0.77
		c1.56-1.99,3.15-3.96,4.73-5.93c0.1-0.13,0.24-0.3,0.38-0.32c2.47-0.45,4.97-0.78,7.41-1.35c1.31-0.3,2.51-1.07,3.79-1.51
		c0.73-0.25,1.53-0.31,2.31-0.38c1.06-0.09,2.2,0.1,3.18-0.21c1.11-0.36,2.04-0.6,2.9,0.34c2.12,2.29,4.44,2.3,7.23,1.14
		c2.99-1.26,6.17-2.06,9.58-3.15c-0.93-1.19-1.69-2.34-2.62-3.33C72.59,9.78,61.53,5.95,48.83,9.26
		C34.91,12.9,26.7,22.34,24.17,36.61c-0.11,0.59-0.76,1.25-1.33,1.57c-0.86,0.47-1.88,0.67-3.01,1.04c0-4,0.82-7.67,2.25-11.16
		C27.44,14.89,37.1,6.65,51.19,4.52c14.56-2.2,26.5,2.98,35.56,14.62c1.74,2.23,1.69,2.27,4.41,1.32c0.36-0.13,0.72-0.28,1.22-0.48
		c-0.91-2.82-1.8-5.59-2.68-8.35c-0.7-2.21,1.04-5.61,3.26-6.34c0.64-0.21,1.35-0.3,1.91-0.64c2.53-1.5,4.73-0.48,6.85,0.88
		c0.42,0.27,0.79,0.8,0.95,1.28c2.67,8.1,5.32,16.22,7.95,24.34c0.53,1.64-1.37,5.22-3.01,5.78c-0.8,0.28-1.65,0.43-2.39,0.81
		c-2.12,1.09-4.01,0.77-5.99-0.46c-0.97-0.6-1.64-1.18-1.97-2.3c-0.82-2.74-1.75-5.45-2.71-8.38c-7.9,2.57-15.72,5.12-23.62,7.69
		c0.13,0.68,0.13,1.33,0.37,1.86c1.1,2.52,0.48,4.5-1.43,6.45c-1.96,2-3.62,4.3-5.35,6.52c-0.34,0.44-0.64,1.11-0.57,1.62
		c0.94,7.02,1.96,14.03,2.96,21.04c0.02,0.15,0.13,0.29,0.29,0.65 M24.93,49.2c2.34,10.33,14.68,23.51,21.14,22.59
		c-0.64-9.54,1.67-19.27-1.89-28.82C37.77,45.05,31.39,47.11,24.93,49.2z M69.22,31.64c0.37-4.12,0.38-4.13-2.56-5.89
		c-0.38-0.23-1.01-0.42-1.36-0.27c-1.48,0.64-2.88,1.12-4.49,0.29c-0.36-0.19-1.1,0.29-1.65,0.52c-1.11,0.46-2.16,1.15-3.32,1.41
		c-2.45,0.57-4.95,0.91-7.41,1.4c-0.28,0.05-0.53,0.39-0.74,0.64c-1.18,1.43-2.37,2.86-3.49,4.33c-0.3,0.4-0.39,0.96-0.57,1.44
		c0.16,0.13,0.33,0.26,0.49,0.4c0.91-0.56,1.82-1.13,2.72-1.69c-0.06-0.15,0.05,0.05,0.09,0.26c0.39,1.88,1.95,2.5,3.44,3.12
		c0.94,0.39,1.47,0.03,1.42-1.11c-0.07-1.39-0.02-2.79-0.02-4.18c0.04,0,0.08-0.01,0.12-0.01c0.38,1.62,0.76,3.24,1.18,5.04
		c1.62-0.3,3.13-0.58,5.14-0.95c-0.72-1.12-1.36-1.85-1.69-2.71c-0.3-0.77-0.47-1.72-0.29-2.5c0.1-0.45,0.98-0.95,1.56-1.03
		c1.83-0.25,3.69-0.31,5.53-0.44c0.06-0.9,0.11-1.5,0.18-2.49c0.46,0.91,0.75,1.48,1.12,2.2C66.94,28.36,68.48,29.12,69.22,31.64z
		 M108.27,33.28c-1.4,0.45-2.49,0.89-3.61,1.14c-0.65,0.14-1.51,0.23-2.04-0.07c-1.27-0.72-2.27-0.41-3.4,0.28
		C102.23,37.05,106.85,36.5,108.27,33.28z"/>
</g>
</svg>
